<svg width="456" height="448" viewBox="0 0 456 448" fill="none" xmlns="http://www.w3.org/2000/svg">
<path d="M175.996 320H127.996V16C127.996 11.7565 126.311 7.68687 123.31 4.68629C120.309 1.68571 116.24 0 111.996 0H79.9963C75.7529 0 71.6832 1.68571 68.6826 4.68629C65.682 7.68687 63.9963 11.7565 63.9963 16V320H15.9963C1.80633 320 -5.36367 337.24 4.70633 347.31L84.7063 443.31C87.7066 446.308 91.7747 447.993 96.0163 447.993C100.258 447.993 104.326 446.308 107.326 443.31L187.326 347.31C197.346 337.26 190.216 320 175.996 320Z" fill="#FCA311"/>
<path d="M423.992 256H295.992C291.748 256 287.679 257.686 284.678 260.686C281.677 263.687 279.992 267.757 279.992 272V304C279.992 308.243 281.677 312.313 284.678 315.314C287.679 318.314 291.748 320 295.992 320H351.992L290.732 390.45C287.354 393.453 284.65 397.137 282.799 401.259C280.948 405.382 279.991 409.851 279.992 414.37V432C279.992 436.243 281.677 440.313 284.678 443.314C287.679 446.314 291.748 448 295.992 448H423.992C428.235 448 432.305 446.314 435.305 443.314C438.306 440.313 439.992 436.243 439.992 432V400C439.992 395.757 438.306 391.687 435.305 388.686C432.305 385.686 428.235 384 423.992 384H367.992L429.252 313.55C432.629 310.547 435.333 306.863 437.184 302.741C439.035 298.618 439.992 294.149 439.992 289.63V272C439.992 267.757 438.306 263.687 435.305 260.686C432.305 257.686 428.235 256 423.992 256ZM455.052 170.62L395.782 10.62C394.672 7.51164 392.628 4.82256 389.93 2.9213C387.232 1.02005 384.012 -0.000337347 380.712 8.36615e-08H339.272C335.971 -0.000337347 332.751 1.02005 330.053 2.9213C327.355 4.82256 325.311 7.51164 324.202 10.62L264.932 170.62C264.07 173.034 263.8 175.62 264.146 178.159C264.492 180.699 265.443 183.118 266.919 185.214C268.395 187.309 270.353 189.02 272.628 190.201C274.903 191.382 277.428 191.999 279.992 192H304.822C308.206 192.001 311.503 190.929 314.24 188.938C316.976 186.947 319.011 184.14 320.052 180.92L324.472 168H395.472L399.882 180.92C400.924 184.147 402.965 186.959 405.71 188.95C408.454 190.942 411.761 192.01 415.152 192H439.992C442.555 191.999 445.08 191.382 447.355 190.201C449.63 189.02 451.588 187.309 453.064 185.214C454.54 183.118 455.491 180.699 455.837 178.159C456.183 175.62 455.914 173.034 455.052 170.62ZM343.602 112L359.992 64L376.382 112H343.602Z" fill="#FCA311"/>
</svg>
