<svg width="474" height="448" viewBox="0 0 474 448" fill="none" xmlns="http://www.w3.org/2000/svg">
<path d="M175.996 127.993H127.996V431.993C127.996 436.236 126.311 440.306 123.31 443.306C120.309 446.307 116.24 447.993 111.996 447.993H79.9963C75.7529 447.993 71.6832 446.307 68.6826 443.306C65.682 440.306 63.9963 436.236 63.9963 431.993V127.993H15.9963C1.80633 127.993 -5.36367 110.753 4.70633 100.683L84.7063 4.68259C87.7066 1.68427 91.7747 0 96.0163 0C100.258 0 104.326 1.68427 107.326 4.68259L187.326 100.683C197.346 110.733 190.216 127.993 175.996 127.993Z" fill="#FCA311"/>
<rect x="474" y="69" width="253" height="64" rx="15" transform="rotate(-180 474 69)" fill="#FCA311"/>
<rect x="424" y="193" width="203" height="64" rx="15" transform="rotate(-180 424 193)" fill="#FCA311"/>
<rect x="374" y="318" width="153" height="64" rx="15" transform="rotate(-180 374 318)" fill="#FCA311"/>
<rect x="324" y="443" width="103" height="64" rx="15" transform="rotate(-180 324 443)" fill="#FCA311"/>
</svg>
