<svg width="474" height="448" viewBox="0 0 474 448" fill="none" xmlns="http://www.w3.org/2000/svg">
<path d="M175.996 320H127.996V16C127.996 11.7565 126.311 7.68687 123.31 4.68629C120.309 1.68571 116.24 0 111.996 0H79.9963C75.7529 0 71.6832 1.68571 68.6826 4.68629C65.682 7.68687 63.9963 11.7565 63.9963 16V320H15.9963C1.80633 320 -5.36367 337.24 4.70633 347.31L84.7063 443.31C87.7066 446.308 91.7747 447.993 96.0163 447.993C100.258 447.993 104.326 446.308 107.326 443.31L187.326 347.31C197.346 337.26 190.216 320 175.996 320Z" fill="#FCA311"/>
<rect x="474" y="69" width="253" height="64" rx="15" transform="rotate(-180 474 69)" fill="#FCA311"/>
<rect x="424" y="193" width="203" height="64" rx="15" transform="rotate(-180 424 193)" fill="#FCA311"/>
<rect x="374" y="318" width="153" height="64" rx="15" transform="rotate(-180 374 318)" fill="#FCA311"/>
<rect x="324" y="443" width="103" height="64" rx="15" transform="rotate(-180 324 443)" fill="#FCA311"/>
</svg>
