<svg width="455" height="448" viewBox="0 0 455 448" fill="none" xmlns="http://www.w3.org/2000/svg">
<path d="M175.996 127.993H127.996V431.993C127.996 436.236 126.311 440.306 123.31 443.306C120.309 446.307 116.24 447.993 111.996 447.993H79.9963C75.7529 447.993 71.6832 446.307 68.6826 443.306C65.682 440.306 63.9963 436.236 63.9963 431.993V127.993H15.9963C1.80633 127.993 -5.36367 110.753 4.70633 100.683L84.7063 4.68259C87.7066 1.68427 91.7747 0 96.0163 0C100.258 0 104.326 1.68427 107.326 4.68259L187.326 100.683C197.346 110.733 190.216 127.993 175.996 127.993Z" fill="#FCA311"/>
<path d="M330.245 6.39822C331.286 3.98033 334.714 3.98034 335.755 6.39823L367.986 81.2404C368.42 82.2489 369.371 82.9396 370.464 83.041L451.603 90.5664C454.224 90.8095 455.284 94.07 453.306 95.8074L392.086 149.588C391.261 150.313 390.898 151.43 391.14 152.501L409.056 231.994C409.635 234.563 406.861 236.578 404.598 235.234L334.532 193.629C333.588 193.069 332.412 193.069 331.468 193.629L261.402 235.234C259.139 236.578 256.365 234.563 256.944 231.994L274.86 152.501C275.102 151.43 274.739 150.313 273.914 149.588L212.694 95.8074C210.716 94.07 211.776 90.8095 214.397 90.5664L295.536 83.041C296.629 82.9396 297.58 82.2489 298.014 81.2404L330.245 6.39822Z" fill="#FCA311"/>
<path d="M330.245 308.398C331.286 305.98 334.714 305.98 335.755 308.398L352.033 346.197C352.468 347.206 353.418 347.896 354.512 347.998L395.491 351.798C398.112 352.042 399.171 355.302 397.193 357.039L366.275 384.201C365.45 384.926 365.087 386.043 365.328 387.115L374.377 427.262C374.955 429.831 372.182 431.846 369.918 430.502L334.532 409.489C333.588 408.929 332.412 408.929 331.468 409.489L296.082 430.502C293.818 431.846 291.045 429.831 291.623 427.262L300.672 387.115C300.913 386.043 300.55 384.926 299.725 384.201L268.806 357.039C266.829 355.302 267.888 352.042 270.509 351.798L311.488 347.998C312.582 347.896 313.532 347.206 313.967 346.197L330.245 308.398Z" fill="#FCA311"/>
</svg>
