<svg width="100" height="150" viewBox="0 0 100 150" fill="none" xmlns="http://www.w3.org/2000/svg">
<mask id="mask0_0_1" style="mask-type:alpha" maskUnits="userSpaceOnUse" x="0" y="0" width="100" height="150">
<rect width="100" height="150" fill="#C4C4C4"/>
</mask>
<g mask="url(#mask0_0_1)">
<g filter="url(#filter0_d_0_1)">
<path d="M14.6031 82.9207L14.0037 82.5239L13.0118 84.0221C12.6845 84.5166 12.0121 84.6533 11.5177 84.3259L8.52115 82.3421C8.02672 82.0147 7.89002 81.3424 8.21736 80.8479L9.20929 79.3497L-14.763 63.4786L-15.755 64.9769C-16.0823 65.4713 -16.7546 65.608 -17.2491 65.2807L-20.2456 63.2968C-20.74 62.9694 -20.8768 62.2971 -20.5494 61.8027L-19.5575 60.3044L-20.1568 59.9076C-21.1531 59.248 -22.4854 59.5189 -23.145 60.5152L-39.8096 85.6861C-40.4693 86.6824 -40.1984 88.0147 -39.202 88.6743L-38.6027 89.0711L-37.6108 87.5729C-37.2834 87.0784 -36.6111 86.9417 -36.1167 87.2691L-33.1201 89.2529C-32.6257 89.5803 -32.489 90.2526 -32.8163 90.7471L-33.8083 92.2453L-9.83595 108.116L-8.84401 106.618C-8.51667 106.124 -7.84431 105.987 -7.34988 106.314L-4.35335 108.298C-3.85892 108.626 -3.72222 109.298 -4.04956 109.792L-5.0415 111.291L-4.44219 111.687C-3.44584 112.347 -2.11357 112.076 -1.45393 111.08L15.2107 85.9089C15.8703 84.9126 15.5994 83.5803 14.6031 82.9207ZM-30.0389 86.5519C-30.3662 87.0464 -31.0386 87.1831 -31.533 86.8557L-34.5296 84.8718C-35.024 84.5445 -35.1607 83.8721 -34.8334 83.3777L-32.8495 80.3812C-32.5221 79.8867 -31.8498 79.75 -31.3553 80.0774L-28.3588 82.0613C-27.8644 82.3886 -27.7277 83.061 -28.055 83.5554L-30.0389 86.5519ZM-25.2776 79.3602C-25.6049 79.8547 -26.2773 79.9914 -26.7717 79.664L-29.7682 77.6801C-30.2627 77.3528 -30.3994 76.6805 -30.072 76.186L-28.0882 73.1895C-27.7608 72.6951 -27.0885 72.5583 -26.594 72.8857L-23.5975 74.8696C-23.1031 75.1969 -22.9664 75.8693 -23.2937 76.3637L-25.2776 79.3602ZM-20.5163 72.1685C-20.8436 72.663 -21.516 72.7997 -22.0104 72.4724L-25.0069 70.4885C-25.5014 70.1611 -25.6381 69.4888 -25.3107 68.9943L-23.3268 65.9978C-22.9995 65.5034 -22.3272 65.3667 -21.8327 65.694L-18.8362 67.6779C-18.3418 68.0052 -18.205 68.6776 -18.5324 69.172L-20.5163 72.1685ZM-10.456 101.241C-10.7833 101.735 -11.4557 101.872 -11.9501 101.545L-26.9328 91.6253C-27.4272 91.298 -27.5639 90.6256 -27.2366 90.1312L-22.4753 82.9395C-22.1479 82.4451 -21.4756 82.3084 -20.9812 82.6357L-5.99846 92.5551C-5.50402 92.8825 -5.36732 93.5548 -5.69466 94.0492L-10.456 101.241ZM-2.12368 88.6555C-2.45102 89.1499 -3.12336 89.2866 -3.61779 88.9593L-18.6005 79.0399C-19.0949 78.7125 -19.2316 78.0402 -18.9043 77.5457L-14.143 70.3541C-13.8157 69.8596 -13.1433 69.7229 -12.6489 70.0503L2.33383 79.9697C2.82826 80.297 2.96496 80.9694 2.63762 81.4638L-2.12368 88.6555ZM-1.27213 105.597C-1.59947 106.092 -2.27182 106.228 -2.76625 105.901L-5.76279 103.917C-6.25722 103.59 -6.39392 102.917 -6.06658 102.423L-4.0827 99.4264C-3.75536 98.932 -3.083 98.7953 -2.58857 99.1227L0.407959 101.107C0.90239 101.434 1.03909 102.106 0.711754 102.601L-1.27213 105.597ZM3.48919 98.4055C3.16185 98.8999 2.48949 99.0366 1.99506 98.7093L-1.00147 96.7254C-1.4959 96.3981 -1.6326 95.7257 -1.30526 95.2313L0.678619 92.2348C1.00596 91.7403 1.67831 91.6036 2.17274 91.931L5.16928 93.9148C5.66371 94.2422 5.80042 94.9145 5.47308 95.409L3.48919 98.4055ZM8.2505 91.2138C7.92316 91.7083 7.2508 91.845 6.75637 91.5176L3.75983 89.5338C3.2654 89.2064 3.12871 88.534 3.45605 88.0396L5.43992 85.0431C5.76726 84.5487 6.43961 84.412 6.93404 84.7393L9.93057 86.7232C10.425 87.0505 10.5617 87.7229 10.2344 88.2173L8.2505 91.2138Z" fill="#1E3974"/>
<path d="M28.956 61.2414L28.3567 60.8446L27.3648 62.3429C27.0374 62.8373 26.3651 62.974 25.8706 62.6466L22.8741 60.6628C22.3797 60.3354 22.243 59.6631 22.5703 59.1686L23.5622 57.6704L-0.410065 41.7993L-1.40201 43.2976C-1.72935 43.792 -2.40169 43.9287 -2.89612 43.6014L-5.89266 41.6175C-6.38709 41.2901 -6.52381 40.6178 -6.19647 40.1234L-5.20452 38.6251L-5.80383 38.2283C-6.80018 37.5687 -8.13245 37.8396 -8.79209 38.8359L-25.4567 64.0068C-26.1163 65.0032 -25.8454 66.3354 -24.8491 66.9951L-24.2498 67.3919L-23.2578 65.8936C-22.9305 65.3992 -22.2581 65.2625 -21.7637 65.5898L-18.7672 67.5737C-18.2728 67.901 -18.136 68.5734 -18.4634 69.0678L-14.4993 67.3823L-8.32614 70.7384L5.29387 80.0555L5.50893 84.9389C5.83627 84.4444 6.50862 84.3077 7.00305 84.6351L9.99958 86.6189C10.494 86.9463 10.6307 87.6186 10.3034 88.1131L9.31144 89.6113L9.91075 90.0081C10.9071 90.6677 12.2394 90.3969 12.899 89.4005L29.5636 64.2296C30.2232 63.2333 29.9524 61.901 28.956 61.2414ZM-15.686 64.8727C-16.0133 65.3671 -16.6857 65.5038 -17.1801 65.1765L-20.1766 63.1926C-20.671 62.8652 -20.8078 62.1929 -20.4804 61.6984L-18.4965 58.7019C-18.1692 58.2075 -17.4968 58.0708 -17.0024 58.3981L-14.0059 60.382C-13.5114 60.7093 -13.3747 61.3817 -13.7021 61.8761L-15.686 64.8727ZM-10.9246 57.681C-11.252 58.1754 -11.9243 58.3121 -12.4188 57.9848L-15.4153 56.0009C-15.9097 55.6735 -16.0464 55.0012 -15.7191 54.5068L-13.7352 51.5102C-13.4079 51.0158 -12.7355 50.8791 -12.2411 51.2064L-9.24455 53.1903C-8.75012 53.5176 -8.61341 54.19 -8.94075 54.6844L-10.9246 57.681ZM-6.16332 50.4893C-6.49066 50.9837 -7.16301 51.1204 -7.65744 50.7931L-10.654 48.8092C-11.1484 48.4818 -11.2851 47.8095 -10.9578 47.3151L-8.97389 44.3185C-8.64655 43.8241 -7.97421 43.6874 -7.47978 44.0147L-4.48324 45.9986C-3.98881 46.326 -3.8521 46.9983 -4.17944 47.4927L-6.16332 50.4893ZM3.89695 79.5617C3.56961 80.0561 2.89727 80.1928 2.40284 79.8655L-12.5799 69.946C-13.0743 69.6187 -13.211 68.9464 -12.8837 68.4519L-8.12234 61.2602C-7.79501 60.7658 -7.12265 60.6291 -6.62822 60.9564L8.35448 70.8759C8.84891 71.2032 8.98561 71.8755 8.65827 72.37L3.89695 79.5617ZM12.2293 66.9762C11.9019 67.4706 11.2296 67.6073 10.7351 67.28L-4.24756 57.3606C-4.74199 57.0332 -4.8787 56.3609 -4.55136 55.8665L0.209953 48.6748C0.537292 48.1804 1.20966 48.0436 1.70409 48.371L16.6868 58.2904C17.1812 58.6177 17.3179 59.2901 16.9906 59.7845L12.2293 66.9762ZM13.0808 83.9179C12.7535 84.4124 12.0811 84.5491 11.5867 84.2217L8.59015 82.2378C8.09572 81.9105 7.95901 81.2381 8.28635 80.7437L10.2702 77.7472C10.5976 77.2527 11.2699 77.116 11.7644 77.4434L14.7609 79.4273C15.2553 79.7546 15.392 80.427 15.0647 80.9214L13.0808 83.9179ZM17.8421 76.7262C17.5148 77.2207 16.8424 77.3574 16.348 77.03L13.3515 75.0462C12.857 74.7188 12.7203 74.0465 13.0477 73.552L15.0316 70.5555C15.3589 70.0611 16.0312 69.9243 16.5257 70.2517L19.5222 72.2356C20.0166 72.5629 20.1534 73.2353 19.826 73.7297L17.8421 76.7262ZM22.6034 69.5345C22.2761 70.029 21.6038 70.1657 21.1093 69.8383L18.1128 67.8545C17.6184 67.5271 17.4817 66.8548 17.809 66.3603L19.7929 63.3638C20.1202 62.8694 20.7926 62.7327 21.287 63.06L24.2835 65.0439C24.778 65.3712 24.9147 66.0436 24.5873 66.538L22.6034 69.5345Z" fill="#1E3974"/>
<path d="M43.309 39.562L42.7097 39.1652L41.7177 40.6635C41.3904 41.1579 40.718 41.2946 40.2236 40.9673L37.2271 38.9834C36.7326 38.6561 36.5959 37.9837 36.9233 37.4893L37.9152 35.991L13.9429 20.12L12.951 21.6182C12.6236 22.1127 11.9513 22.2494 11.4568 21.922L8.46031 19.9382C7.96588 19.6108 7.82917 18.9385 8.15651 18.444L9.14845 16.9458L8.54914 16.549C7.55279 15.8893 6.22054 16.1602 5.56089 17.1566L-11.1037 42.3275C-11.7634 43.3238 -11.4925 44.6561 -10.4961 45.3158L-9.89682 45.7125L-8.90488 44.2143C-8.57754 43.7198 -7.90518 43.5831 -7.41075 43.9105L-4.41422 45.8943C-3.91978 46.2217 -3.78308 46.894 -4.11042 47.3885L-0.146305 45.7029L6.02683 49.0591L19.6469 58.3762L19.8619 63.2595C20.1892 62.7651 20.8616 62.6284 21.356 62.9557L24.3525 64.9396C24.847 65.267 24.9837 65.9393 24.6563 66.4337L23.6644 67.932L24.2637 68.3288C25.2601 68.9884 26.5923 68.7175 27.252 67.7212L43.9166 42.5503C44.5762 41.5539 44.3053 40.2217 43.309 39.562ZM-1.33297 43.1933C-1.66031 43.6877 -2.33267 43.8244 -2.8271 43.4971L-5.82364 41.5132C-6.31807 41.1859 -6.45477 40.5135 -6.12743 40.0191L-4.14356 37.0226C-3.81622 36.5281 -3.14386 36.3914 -2.64943 36.7188L0.347103 38.7027C0.841534 39.03 0.978241 39.7023 0.650902 40.1968L-1.33297 43.1933ZM3.42834 36.0016C3.101 36.4961 2.42864 36.6328 1.93421 36.3054L-1.06233 34.3215C-1.55676 33.9942 -1.69346 33.3218 -1.36612 32.8274L0.61776 29.8309C0.945099 29.3364 1.61745 29.1997 2.11189 29.5271L5.10842 31.511C5.60285 31.8383 5.73956 32.5107 5.41222 33.0051L3.42834 36.0016ZM8.18965 28.8099C7.86231 29.3044 7.18995 29.4411 6.69552 29.1137L3.69898 27.1299C3.20455 26.8025 3.06785 26.1302 3.39519 25.6357L5.37907 22.6392C5.70641 22.1448 6.37877 22.0081 6.8732 22.3354L9.86974 24.3193C10.3642 24.6466 10.5009 25.319 10.1735 25.8134L8.18965 28.8099ZM18.2499 57.8823C17.9226 58.3768 17.2502 58.5135 16.7558 58.1861L1.77311 48.2667C1.27868 47.9394 1.14198 47.267 1.46932 46.7726L6.23063 39.5809C6.55797 39.0865 7.23032 38.9498 7.72475 39.2771L22.7074 49.1965C23.2019 49.5238 23.3386 50.1962 23.0112 50.6906L18.2499 57.8823ZM26.5822 45.2969C26.2549 45.7913 25.5825 45.928 25.0881 45.6007L10.1054 35.6813C9.61098 35.3539 9.47428 34.6816 9.80162 34.1871L14.5629 26.9954C14.8903 26.501 15.5626 26.3643 16.0571 26.6916L31.0397 36.6111C31.5342 36.9384 31.6709 37.6108 31.3435 38.1052L26.5822 45.2969ZM27.4338 62.2386C27.1065 62.733 26.4341 62.8697 25.9397 62.5424L22.9431 60.5585C22.4487 60.2311 22.312 59.5588 22.6393 59.0644L24.6232 56.0678C24.9505 55.5734 25.6229 55.4367 26.1173 55.764L29.1139 57.7479C29.6083 58.0753 29.745 58.7476 29.4177 59.2421L27.4338 62.2386ZM32.1951 55.0469C31.8678 55.5413 31.1954 55.678 30.701 55.3507L27.7044 53.3668C27.21 53.0395 27.0733 52.3671 27.4006 51.8727L29.3845 48.8761C29.7119 48.3817 30.3842 48.245 30.8786 48.5723L33.8752 50.5562C34.3696 50.8836 34.5063 51.5559 34.179 52.0504L32.1951 55.0469ZM36.9564 47.8552C36.6291 48.3496 35.9567 48.4864 35.4623 48.159L32.4657 46.1751C31.9713 45.8478 31.8346 45.1754 32.1619 44.681L34.1458 41.6845C34.4732 41.19 35.1455 41.0533 35.64 41.3807L38.6365 43.3645C39.1309 43.6919 39.2676 44.3642 38.9403 44.8587L36.9564 47.8552Z" fill="#1E3974"/>
<path d="M57.6619 17.8827L57.0626 17.486L56.0707 18.9842C55.7433 19.4787 55.071 19.6154 54.5765 19.288L51.58 17.3041C51.0856 16.9768 50.9489 16.3045 51.2762 15.81L52.2682 14.3118L28.2959 -1.5593L27.3039 -0.0610294C26.9766 0.433399 26.3042 0.570105 25.8098 0.242764L22.8133 -1.74112C22.3188 -2.06846 22.1821 -2.74081 22.5095 -3.23524L23.5014 -4.73351L22.9021 -5.13029C21.9057 -5.78993 20.5735 -5.51904 19.9138 -4.5227L3.24923 20.6482C2.58959 21.6446 2.86048 22.9768 3.85683 23.6365L4.45613 24.0332L5.44807 22.535C5.77541 22.0405 6.44777 21.9038 6.9422 22.2312L9.93874 24.2151C10.4332 24.5424 10.5699 25.2148 10.2425 25.7092L14.2066 24.0237L20.3798 27.3798L33.9998 36.6969L34.2148 41.5802C34.5422 41.0858 35.2145 40.9491 35.709 41.2764L38.7055 43.2603C39.1999 43.5877 39.3366 44.26 39.0093 44.7544L38.0174 46.2527L38.6167 46.6495C39.613 47.3091 40.9453 47.0382 41.6049 46.0419L58.2695 20.871C58.9292 19.8746 58.6583 18.5424 57.6619 17.8827ZM13.02 21.514C12.6926 22.0085 12.0203 22.1452 11.5258 21.8178L8.5293 19.8339C8.03487 19.5066 7.89817 18.8343 8.22551 18.3398L10.2094 15.3433C10.5367 14.8489 11.2091 14.7121 11.7035 15.0395L14.7001 17.0234C15.1945 17.3507 15.3312 18.0231 15.0039 18.5175L13.02 21.514ZM17.7813 14.3223C17.4539 14.8168 16.7816 14.9535 16.2872 14.6261L13.2906 12.6423C12.7962 12.3149 12.6595 11.6426 12.9868 11.1481L14.9707 8.15159C15.298 7.65716 15.9704 7.52045 16.4648 7.84779L19.4614 9.83167C19.9558 10.159 20.0925 10.8314 19.7652 11.3258L17.7813 14.3223ZM22.5426 7.13065C22.2153 7.62508 21.5429 7.76179 21.0485 7.43445L18.0519 5.45057C17.5575 5.12323 17.4208 4.45087 17.7481 3.95644L19.732 0.9599C20.0594 0.465471 20.7317 0.328762 21.2262 0.656103L24.2227 2.63999C24.7171 2.96733 24.8538 3.63968 24.5265 4.13411L22.5426 7.13065ZM32.6029 36.203C32.2755 36.6975 31.6032 36.8342 31.1087 36.5068L16.1261 26.5874C15.6316 26.2601 15.4949 25.5877 15.8223 25.0933L20.5836 17.9016C20.9109 17.4072 21.5833 17.2705 22.0777 17.5978L37.0604 27.5172C37.5548 27.8446 37.6915 28.5169 37.3642 29.0114L32.6029 36.203ZM40.9352 23.6176C40.6078 24.112 39.9355 24.2487 39.4411 23.9214L24.4584 14.002C23.9639 13.6746 23.8272 13.0023 24.1546 12.5078L28.9159 5.31615C29.2432 4.82173 29.9156 4.68501 30.41 5.01236L45.3927 14.9318C45.8871 15.2591 46.0238 15.9315 45.6965 16.4259L40.9352 23.6176ZM41.7867 40.5593C41.4594 41.0537 40.787 41.1904 40.2926 40.8631L37.2961 38.8792C36.8016 38.5519 36.6649 37.8795 36.9923 37.3851L38.9762 34.3885C39.3035 33.8941 39.9758 33.7574 40.4703 34.0848L43.4668 36.0686C43.9612 36.396 44.098 37.0683 43.7706 37.5628L41.7867 40.5593ZM46.548 33.3676C46.2207 33.862 45.5484 33.9987 45.0539 33.6714L42.0574 31.6875C41.563 31.3602 41.4262 30.6878 41.7536 30.1934L43.7375 27.1969C44.0648 26.7024 44.7372 26.5657 45.2316 26.8931L48.2281 28.8769C48.7226 29.2043 48.8593 29.8766 48.5319 30.3711L46.548 33.3676ZM51.3094 26.1759C50.982 26.6703 50.3097 26.8071 49.8152 26.4797L46.8187 24.4958C46.3243 24.1685 46.1876 23.4961 46.5149 23.0017L48.4988 20.0052C48.8261 19.5107 49.4985 19.374 49.9929 19.7014L52.9894 21.6853C53.4839 22.0126 53.6206 22.6849 53.2932 23.1794L51.3094 26.1759Z" fill="#1E3974"/>
<path d="M72.0149 -3.79662L71.4156 -4.1934L70.4236 -2.69513C70.0963 -2.2007 69.4239 -2.06399 68.9295 -2.39133L65.933 -4.37521C65.4385 -4.70255 65.3018 -5.37491 65.6292 -5.86934L66.6211 -7.36761L42.6488 -23.2387L41.6569 -21.7404C41.3295 -21.246 40.6572 -21.1093 40.1628 -21.4366L37.1662 -23.4205C36.6718 -23.7478 36.5351 -24.4202 36.8624 -24.9146L37.8544 -26.4129L37.2551 -26.8097C36.2587 -27.4693 34.9264 -27.1984 34.2668 -26.2021L17.6022 -1.03114C16.9426 -0.0347939 17.2134 1.29747 18.2098 1.95711L18.8091 2.35389L19.801 0.855616C20.1284 0.361187 20.8007 0.224478 21.2952 0.551819L24.2917 2.5357C24.7861 2.86304 24.9228 3.5354 24.5955 4.02983L28.5596 2.34431L34.7327 5.70046L48.3527 15.0175L48.5678 19.9009C48.8951 19.4065 49.5675 19.2697 50.0619 19.5971L53.0585 21.581C53.5529 21.9083 53.6896 22.5807 53.3623 23.0751L52.3703 24.5734L52.9696 24.9701C53.966 25.6298 55.2982 25.3589 55.9579 24.3625L72.6225 -0.808371C73.2821 -1.80472 73.0112 -3.13698 72.0149 -3.79662ZM27.3729 -0.165323C27.0456 0.329105 26.3732 0.465815 25.8788 0.138474L22.8823 -1.84541C22.3878 -2.17275 22.2511 -2.84511 22.5785 -3.33954L24.5623 -6.33607C24.8897 -6.8305 25.562 -6.96721 26.0565 -6.63987L29.053 -4.65599C29.5474 -4.32865 29.6842 -3.65629 29.3568 -3.16186L27.3729 -0.165323ZM32.1342 -7.35701C31.8069 -6.86259 31.1346 -6.72588 30.6401 -7.05322L27.6436 -9.0371C27.1491 -9.36444 27.0124 -10.0368 27.3398 -10.5312L29.3237 -13.5278C29.651 -14.0222 30.3234 -14.1589 30.8178 -13.8316L33.8143 -11.8477C34.3088 -11.5203 34.4455 -10.848 34.1181 -10.3536L32.1342 -7.35701ZM36.8956 -14.5487C36.5682 -14.0543 35.8959 -13.9176 35.4014 -14.2449L32.4049 -16.2288C31.9105 -16.5561 31.7738 -17.2285 32.1011 -17.7229L34.085 -20.7195C34.4123 -21.2139 35.0847 -21.3506 35.5791 -21.0233L38.5756 -19.0394C39.0701 -18.712 39.2068 -18.0397 38.8794 -17.5452L36.8956 -14.5487ZM46.9558 14.5237C46.6285 15.0181 45.9561 15.1548 45.4617 14.8275L30.479 4.90807C29.9846 4.58073 29.8479 3.90838 30.1752 3.41395L34.9365 -3.77774C35.2639 -4.27217 35.9362 -4.40888 36.4307 -4.08154L51.4134 5.83787C51.9078 6.16521 52.0445 6.83757 51.7171 7.332L46.9558 14.5237ZM55.2881 1.93823C54.9608 2.43266 54.2884 2.56937 53.794 2.24203L38.8113 -7.67739C38.3169 -8.00473 38.1802 -8.67708 38.5075 -9.17151L43.2688 -16.3632C43.5962 -16.8576 44.2685 -16.9943 44.763 -16.667L59.7457 -6.74759C60.2401 -6.42025 60.3768 -5.74789 60.0495 -5.25346L55.2881 1.93823ZM56.1397 18.8799C55.8123 19.3744 55.14 19.5111 54.6456 19.1837L51.649 17.1999C51.1546 16.8725 51.0179 16.2002 51.3452 15.7057L53.3291 12.7092C53.6564 12.2148 54.3288 12.0781 54.8232 12.4054L57.8198 14.3893C58.3142 14.7166 58.4509 15.389 58.1236 15.8834L56.1397 18.8799ZM60.901 11.6883C60.5737 12.1827 59.9013 12.3194 59.4069 11.9921L56.4103 10.0082C55.9159 9.68083 55.7792 9.00847 56.1065 8.51404L58.0904 5.5175C58.4178 5.02307 59.0901 4.88637 59.5846 5.21371L62.5811 7.19759C63.0755 7.52493 63.2122 8.19728 62.8849 8.69171L60.901 11.6883ZM65.6623 4.49656C65.335 4.99099 64.6626 5.1277 64.1682 4.80036L61.1717 2.81648C60.6772 2.48914 60.5405 1.81678 60.8679 1.32235L62.8517 -1.67419C63.1791 -2.16862 63.8514 -2.30532 64.3459 -1.97798L67.3424 0.00589752C67.8368 0.333239 67.9735 1.00559 67.6462 1.50002L65.6623 4.49656Z" fill="#1E3974"/>
</g>
<g filter="url(#filter1_d_0_1)">
<path d="M61.4372 59.625H31.8962C29.192 59.625 27 61.8402 27 64.573V94.427C27 97.1598 29.192 99.375 31.8962 99.375H61.4372C64.1413 99.375 66.3333 97.1598 66.3333 94.427V64.573C66.3333 61.8402 64.1413 59.625 61.4372 59.625ZM80.8375 63.5275L69.6111 71.3533V87.6467L80.8375 95.4621C83.009 96.9734 86 95.4311 86 92.7914V66.1982C86 63.5689 83.0193 62.0162 80.8375 63.5275Z" fill="#14213D"/>
</g>
<g filter="url(#filter2_i_0_1)">
<path d="M98.5 148.5H1.5V1.5H98.5V148.5Z" stroke="#14213D" stroke-width="3"/>
</g>
</g>
<defs>
<filter id="filter0_d_0_1" x="-44.17" y="-27.1701" width="121.153" height="147.218" filterUnits="userSpaceOnUse" color-interpolation-filters="sRGB">
<feFlood flood-opacity="0" result="BackgroundImageFix"/>
<feColorMatrix in="SourceAlpha" type="matrix" values="0 0 0 0 0 0 0 0 0 0 0 0 0 0 0 0 0 0 127 0" result="hardAlpha"/>
<feOffset dy="4"/>
<feGaussianBlur stdDeviation="2"/>
<feComposite in2="hardAlpha" operator="out"/>
<feColorMatrix type="matrix" values="0 0 0 0 0 0 0 0 0 0 0 0 0 0 0 0 0 0 0.25 0"/>
<feBlend mode="normal" in2="BackgroundImageFix" result="effect1_dropShadow_0_1"/>
<feBlend mode="normal" in="SourceGraphic" in2="effect1_dropShadow_0_1" result="shape"/>
</filter>
<filter id="filter1_d_0_1" x="19" y="59.625" width="67" height="47.75" filterUnits="userSpaceOnUse" color-interpolation-filters="sRGB">
<feFlood flood-opacity="0" result="BackgroundImageFix"/>
<feColorMatrix in="SourceAlpha" type="matrix" values="0 0 0 0 0 0 0 0 0 0 0 0 0 0 0 0 0 0 127 0" result="hardAlpha"/>
<feOffset dx="-4" dy="4"/>
<feGaussianBlur stdDeviation="2"/>
<feComposite in2="hardAlpha" operator="out"/>
<feColorMatrix type="matrix" values="0 0 0 0 0 0 0 0 0 0 0 0 0 0 0 0 0 0 0.4 0"/>
<feBlend mode="normal" in2="BackgroundImageFix" result="effect1_dropShadow_0_1"/>
<feBlend mode="normal" in="SourceGraphic" in2="effect1_dropShadow_0_1" result="shape"/>
</filter>
<filter id="filter2_i_0_1" x="0" y="0" width="100" height="154" filterUnits="userSpaceOnUse" color-interpolation-filters="sRGB">
<feFlood flood-opacity="0" result="BackgroundImageFix"/>
<feBlend mode="normal" in="SourceGraphic" in2="BackgroundImageFix" result="shape"/>
<feColorMatrix in="SourceAlpha" type="matrix" values="0 0 0 0 0 0 0 0 0 0 0 0 0 0 0 0 0 0 127 0" result="hardAlpha"/>
<feOffset dy="4"/>
<feGaussianBlur stdDeviation="2"/>
<feComposite in2="hardAlpha" operator="arithmetic" k2="-1" k3="1"/>
<feColorMatrix type="matrix" values="0 0 0 0 0 0 0 0 0 0 0 0 0 0 0 0 0 0 0.25 0"/>
<feBlend mode="normal" in2="shape" result="effect1_innerShadow_0_1"/>
</filter>
</defs>
</svg>
