<svg width="445" height="445" viewBox="0 0 445 445" fill="none" xmlns="http://www.w3.org/2000/svg">
<path d="M445 222.5C445 345.383 345.383 445 222.5 445C99.6166 445 0 345.383 0 222.5C0 99.6166 99.6166 0 222.5 0C345.383 0 445 99.6166 445 222.5ZM33.0404 222.5C33.0404 327.136 117.864 411.96 222.5 411.96C327.136 411.96 411.96 327.136 411.96 222.5C411.96 117.864 327.136 33.0404 222.5 33.0404C117.864 33.0404 33.0404 117.864 33.0404 222.5Z" fill="white"/>
<rect x="105" y="142.002" width="53.7425" height="279.164" rx="2" transform="rotate(-45 105 142.002)" fill="white"/>
<rect x="302.399" y="104" width="53.7425" height="279.164" rx="2" transform="rotate(45 302.399 104)" fill="white"/>
</svg>
