<svg width="821" height="239" viewBox="0 0 821 239" fill="none" xmlns="http://www.w3.org/2000/svg">
<path d="M21.5683 238.265C12.5454 236.305 4.50267 229.072 1.3332 220.066L0.18336 216.799L0.0561937 157.893C-0.0852014 92.3991 -0.212935 95.3537 3.0486 88.68C5.27419 84.1261 10.5041 78.8343 14.9097 76.6785C21.1265 73.6364 19.2787 73.7445 65.0675 73.7445H106.639L90.9091 57.9922C80.3721 47.4404 74.9405 41.667 74.4568 40.5046C73.0402 37.1003 73.9134 32.4329 76.3702 30.2777C79.1523 27.8372 83.7958 27.121 86.8105 28.6673C87.7095 29.1284 95.4318 36.4617 103.971 44.9635L119.497 60.4214L149.27 30.756C180.597 -0.4594 180.077 0.000376484 184.059 0.000376484C185.631 0.000376484 188.594 1.25642 189.945 2.49547C192.653 4.97917 193.567 9.42507 192.098 12.9673C191.599 14.1731 182.374 23.7096 161.866 44.2235L132.352 73.7445H173.928C219.722 73.7445 217.873 73.6364 224.09 76.6785C228.496 78.8343 233.726 84.1261 235.951 88.68C239.213 95.3537 239.085 92.3991 238.944 157.893L238.817 216.799L237.667 220.066C234.458 229.183 226.432 236.333 217.216 238.285C212.655 239.251 26.0207 239.232 21.5684 238.265L21.5683 238.265ZM120.2 220.304C142.581 219.659 151.676 218.097 159.4 213.573C162.517 211.747 166.888 206.739 168.702 202.917C172.792 194.295 174.064 185.29 174.453 162.191C175.343 109.268 169.541 97.3376 140.982 93.3667C133.928 92.3859 120.582 91.9607 96.8508 91.9607C59.9479 91.9607 48.6819 92.8708 38.7965 96.6504C26.2101 101.463 21.1192 110.896 19.0424 133.253C18.3147 141.087 18.3252 172.053 19.0583 179.46C21.8533 207.707 28.8032 215.848 52.9537 219.162C62.5196 220.474 95.1168 221.028 120.201 220.304H120.2ZM213.025 182.976C216.04 181.455 218.385 179.044 219.851 175.959C220.836 173.886 221.068 172.719 221.056 169.892C221.032 164.146 218.318 159.807 213.162 157.27C203.551 152.541 192.573 159.419 192.646 170.125C192.69 176.633 196.63 181.847 203.092 183.947C205.377 184.69 210.651 184.175 213.025 182.976V182.976ZM211.639 146.815C218.254 144.456 222.367 137.132 220.867 130.38C219.285 123.258 213.236 118.676 205.971 119.097C193.522 119.818 188.061 134.841 197.05 143.641C198.166 144.733 200.139 146.035 201.435 146.534C204.226 147.607 209.044 147.739 211.639 146.815V146.815Z" fill="white"/>
<path d="M315.76 186.24C312.4 190.16 308.387 193.24 303.72 195.48C299.147 197.627 294.2 198.7 288.88 198.7C282.533 198.7 276.653 197.113 271.24 193.94C265.827 190.767 261.533 186.473 258.36 181.06C255.187 175.647 253.6 169.767 253.6 163.42C253.6 157.073 255.187 151.193 258.36 145.78C261.533 140.367 265.827 136.073 271.24 132.9C276.653 129.727 282.533 128.14 288.88 128.14C294.2 128.14 299.147 129.26 303.72 131.5C308.387 133.647 312.4 136.68 315.76 140.6L307.22 145.5C304.887 143.073 302.133 141.207 298.96 139.9C295.787 138.5 292.427 137.8 288.88 137.8C284.213 137.8 279.92 138.967 276 141.3C272.08 143.54 268.953 146.62 266.62 150.54C264.287 154.46 263.12 158.753 263.12 163.42C263.12 168.087 264.287 172.38 266.62 176.3C268.953 180.22 272.08 183.347 276 185.68C279.92 187.92 284.213 189.04 288.88 189.04C292.427 189.04 295.787 188.387 298.96 187.08C302.133 185.68 304.887 183.767 307.22 181.34L315.76 186.24ZM356.278 127.44C361.318 127.44 365.938 128.7 370.138 131.22C374.431 133.647 377.791 137.007 380.218 141.3C382.738 145.5 383.998 150.12 383.998 155.16V198H374.338V155.16C374.338 151.893 373.498 148.86 371.818 146.06C370.231 143.26 368.038 141.067 365.238 139.48C362.531 137.8 359.545 136.96 356.278 136.96C353.011 136.96 349.978 137.8 347.178 139.48C344.378 141.067 342.138 143.26 340.458 146.06C338.871 148.86 338.078 151.893 338.078 155.16V198H328.418V104.62H338.078V135.28C340.318 132.667 342.978 130.707 346.058 129.4C349.231 128.093 352.638 127.44 356.278 127.44ZM406.688 168.18C407.808 174.153 410.748 179.147 415.508 183.16C420.268 187.08 425.728 189.04 431.888 189.04C436.461 189.04 440.661 187.967 444.488 185.82C448.314 183.673 451.394 180.733 453.728 177L461.988 181.76C458.814 186.893 454.568 191 449.248 194.08C443.928 197.16 438.141 198.7 431.888 198.7C425.541 198.7 419.661 197.113 414.248 193.94C408.834 190.767 404.541 186.473 401.368 181.06C398.194 175.647 396.608 169.767 396.608 163.42C396.608 156.98 398.194 151.1 401.368 145.78C404.541 140.367 408.834 136.073 414.248 132.9C419.661 129.727 425.541 128.14 431.888 128.14C438.234 128.14 444.114 129.727 449.528 132.9C454.941 136.073 459.234 140.367 462.408 145.78C465.581 151.1 467.168 156.98 467.168 163.42C467.168 164.54 467.074 166.127 466.888 168.18H406.688ZM431.888 137.66C427.781 137.66 423.768 138.64 419.848 140.6C415.928 142.467 412.754 145.08 410.328 148.44C407.901 151.707 406.688 155.253 406.688 159.08H457.088C457.088 155.253 455.874 151.707 453.448 148.44C451.021 145.08 447.848 142.467 443.928 140.6C440.101 138.64 436.088 137.66 431.888 137.66ZM539.158 186.24C535.798 190.16 531.785 193.24 527.118 195.48C522.545 197.627 517.598 198.7 512.278 198.7C505.932 198.7 500.052 197.113 494.638 193.94C489.225 190.767 484.932 186.473 481.758 181.06C478.585 175.647 476.998 169.767 476.998 163.42C476.998 157.073 478.585 151.193 481.758 145.78C484.932 140.367 489.225 136.073 494.638 132.9C500.052 129.727 505.932 128.14 512.278 128.14C517.598 128.14 522.545 129.26 527.118 131.5C531.785 133.647 535.798 136.68 539.158 140.6L530.618 145.5C528.285 143.073 525.532 141.207 522.358 139.9C519.185 138.5 515.825 137.8 512.278 137.8C507.612 137.8 503.318 138.967 499.398 141.3C495.478 143.54 492.352 146.62 490.018 150.54C487.685 154.46 486.518 158.753 486.518 163.42C486.518 168.087 487.685 172.38 490.018 176.3C492.352 180.22 495.478 183.347 499.398 185.68C503.318 187.92 507.612 189.04 512.278 189.04C515.825 189.04 519.185 188.387 522.358 187.08C525.532 185.68 528.285 183.767 530.618 181.34L539.158 186.24ZM586.956 198L561.476 168.18V198H551.816V104.2H561.476V148.72L584.436 128H598.856L565.396 158.1L599.696 198H586.956ZM618.892 105.04V140.88C625.332 132.2 634.058 127.86 645.072 127.86C651.512 127.86 657.438 129.447 662.852 132.62C668.265 135.793 672.558 140.133 675.732 145.64C678.905 151.053 680.492 156.933 680.492 163.28C680.492 169.627 678.905 175.553 675.732 181.06C672.558 186.473 668.265 190.767 662.852 193.94C657.438 197.113 651.512 198.7 645.072 198.7C634.432 198.7 625.705 194.127 618.892 184.98V198H609.512V105.04H618.892ZM619.172 163.28C619.172 167.947 620.338 172.287 622.672 176.3C625.005 180.22 628.132 183.347 632.052 185.68C636.065 188.013 640.405 189.18 645.072 189.18C649.738 189.18 654.032 188.013 657.952 185.68C661.872 183.347 664.998 180.22 667.332 176.3C669.665 172.287 670.832 167.947 670.832 163.28C670.832 158.613 669.665 154.32 667.332 150.4C664.998 146.48 661.872 143.353 657.952 141.02C654.032 138.687 649.738 137.52 645.072 137.52C640.405 137.52 636.065 138.687 632.052 141.02C628.132 143.353 625.005 146.48 622.672 150.4C620.338 154.32 619.172 158.613 619.172 163.28ZM724.333 198.7C717.986 198.7 712.059 197.113 706.553 193.94C701.139 190.767 696.846 186.473 693.673 181.06C690.499 175.553 688.913 169.627 688.913 163.28C688.913 156.84 690.499 150.913 693.673 145.5C696.846 139.993 701.139 135.653 706.553 132.48C712.059 129.213 717.986 127.58 724.333 127.58C730.773 127.58 736.699 129.213 742.113 132.48C747.619 135.653 751.959 139.993 755.133 145.5C758.399 150.913 760.033 156.84 760.033 163.28C760.033 169.627 758.399 175.553 755.133 181.06C751.959 186.473 747.619 190.767 742.113 193.94C736.699 197.113 730.773 198.7 724.333 198.7ZM724.333 189.32C729.093 189.32 733.433 188.153 737.353 185.82C741.366 183.487 744.539 180.313 746.873 176.3C749.206 172.287 750.373 167.947 750.373 163.28C750.373 158.52 749.206 154.133 746.873 150.12C744.539 146.107 741.366 142.933 737.353 140.6C733.433 138.267 729.093 137.1 724.333 137.1C719.666 137.1 715.326 138.267 711.313 140.6C707.393 142.933 704.266 146.107 701.933 150.12C699.599 154.133 698.433 158.52 698.433 163.28C698.433 167.947 699.599 172.287 701.933 176.3C704.266 180.313 707.393 183.487 711.313 185.82C715.326 188.153 719.666 189.32 724.333 189.32ZM798.512 163.84L819.512 198H808.172L792.912 173.08L777.512 198H766.312L787.172 163.84L765.612 128.56H776.812L792.912 154.74L808.872 128.56H820.212L798.512 163.84Z" fill="white"/>
<path d="M80.5 127.26H58.27V205H49.43V127.26H27.2V118.55H80.5V127.26ZM121.09 204.87L90.9305 118.42H100.42L126.81 193.95L153.2 118.42H162.56L132.4 204.87H121.09Z" fill="white"/>
</svg>
