<svg width="445" height="445" viewBox="0 0 445 445" fill="none" xmlns="http://www.w3.org/2000/svg">
<path d="M445 222.5C445 345.383 345.383 445 222.5 445C99.6166 445 0 345.383 0 222.5C0 99.6166 99.6166 0 222.5 0C345.383 0 445 99.6166 445 222.5ZM33.0404 222.5C33.0404 327.136 117.864 411.96 222.5 411.96C327.136 411.96 411.96 327.136 411.96 222.5C411.96 117.864 327.136 33.0404 222.5 33.0404C117.864 33.0404 33.0404 117.864 33.0404 222.5Z" fill="#FCA311"/>
<path d="M119.616 325.384C118.835 326.165 118.834 327.433 119.626 328.203C136.517 344.642 157.109 356.801 179.683 363.649C202.895 370.69 227.485 371.898 251.276 367.166C275.066 362.434 297.322 351.907 316.073 336.519C334.824 321.131 349.49 301.356 358.772 278.946C368.055 256.536 371.667 232.182 369.29 208.042C366.912 183.903 358.618 160.722 345.142 140.553C331.666 120.385 313.423 103.851 292.031 92.4166C271.227 81.2966 248.068 75.3331 224.5 75.0136C223.396 74.9986 222.5 75.8954 222.5 77L222.5 221.672C222.5 222.202 222.289 222.711 221.914 223.086L119.616 325.384Z" fill="#FCA311"/>
</svg>
