<svg width="1176" height="186" viewBox="0 0 1176 186" fill="none" xmlns="http://www.w3.org/2000/svg">
<g filter="url(#filter0_d_6_14)">
<path d="M186 172.614C186 189.521 155.434 161.223 117.728 161.223C80.0222 161.223 50 189.521 50 172.614C50 155.706 80.0222 142 117.728 142C155.434 142 186 155.706 186 172.614Z" fill="#05030E"/>
</g>
<g filter="url(#filter1_d_6_14)">
<rect x="4" y="2" width="220" height="147" rx="3" fill="#191139"/>
</g>
<rect x="20" y="15" width="189" height="122" fill="#A2A1A1"/>
<rect x="167" y="15" width="42" height="122" fill="#8D8D8D"/>
<g filter="url(#filter2_d_6_14)">
<path d="M96.7028 126.576L43.2584 76.1297C40.2472 72.8978 40.2472 67.6576 43.2584 64.4254L54.1634 52.7211C57.1746 49.4889 62.0573 49.4889 65.0686 52.7211L102.155 85.6108L179.931 8.42392C182.943 5.19203 187.825 5.19203 190.837 8.42392L201.742 20.1282C204.753 23.36 204.753 28.6002 201.742 31.8324L107.608 126.576C104.596 129.808 99.7141 129.808 96.7028 126.576Z" fill="#50C04E"/>
</g>
<path d="M292.38 131V51.44H252.6V37.4H346.2V51.44H306.55V131H292.38ZM407.403 131L353.193 37.4H369.573L414.423 115.14L459.013 37.4H475.393L421.313 131H407.403ZM502.553 131C497.873 131 493.887 129.353 490.593 126.06C487.3 122.767 485.653 118.78 485.653 114.1V72.5C485.653 67.82 487.3 63.8333 490.593 60.54C493.887 57.2467 497.873 55.6 502.553 55.6H562.093V69.64H504.503C502.597 69.64 501.297 69.9867 500.603 70.68C499.997 71.2867 499.693 72.5433 499.693 74.45V112.15C499.693 114.057 499.997 115.357 500.603 116.05C501.297 116.657 502.597 116.96 504.503 116.96H562.353V131H502.553ZM573.895 131V30.9H587.935V55.6H633.695C638.288 55.6 642.232 57.2467 645.525 60.54C648.905 63.8333 650.595 67.82 650.595 72.5V131H636.555V74.45C636.555 72.5433 636.208 71.2867 635.515 70.68C634.908 69.9867 633.652 69.64 631.745 69.64H592.745C590.838 69.64 589.538 69.9867 588.845 70.68C588.238 71.2867 587.935 72.5433 587.935 74.45V131H573.895ZM677.241 131C672.561 131 668.574 129.353 665.281 126.06C661.988 122.767 660.341 118.78 660.341 114.1V72.5C660.341 67.82 661.988 63.8333 665.281 60.54C668.574 57.2467 672.561 55.6 677.241 55.6H720.141C724.821 55.6 728.808 57.2467 732.101 60.54C735.394 63.8333 737.041 67.82 737.041 72.5V100.32H674.381V112.15C674.381 114.057 674.684 115.357 675.291 116.05C675.984 116.657 677.284 116.96 679.191 116.96H737.041V131H677.241ZM674.381 87.19H722.871V74.45C722.871 72.5433 722.568 71.2867 721.961 70.68C721.354 69.9867 720.098 69.64 718.191 69.64H679.191C677.284 69.64 675.984 69.9867 675.291 70.68C674.684 71.2867 674.381 72.5433 674.381 74.45V87.19ZM764.331 131C759.651 131 755.664 129.353 752.371 126.06C749.077 122.767 747.431 118.78 747.431 114.1V72.5C747.431 67.82 749.077 63.8333 752.371 60.54C755.664 57.2467 759.651 55.6 764.331 55.6H823.871V69.64H766.281C764.374 69.64 763.074 69.9867 762.381 70.68C761.774 71.2867 761.471 72.5433 761.471 74.45V112.15C761.471 114.057 761.774 115.357 762.381 116.05C763.074 116.657 764.374 116.96 766.281 116.96H824.131V131H764.331ZM835.165 131V30.9H849.205V86.28H866.105L894.315 55.6H910.435V58.2L878.585 93.3L910.435 128.4V131H894.315L866.105 100.32H849.205V131H835.165ZM919.208 131V30.9H933.248V55.6H979.007C983.688 55.6 987.674 57.2467 990.968 60.54C994.261 63.8333 995.908 67.82 995.908 72.5V114.1C995.908 118.78 994.261 122.767 990.968 126.06C987.674 129.353 983.688 131 979.007 131H919.208ZM938.058 116.96H977.058C978.964 116.96 980.221 116.657 980.827 116.05C981.521 115.357 981.868 114.057 981.868 112.15V74.45C981.868 72.5433 981.521 71.2867 980.827 70.68C980.221 69.9867 978.964 69.64 977.058 69.64H938.058C936.151 69.64 934.851 69.9867 934.158 70.68C933.551 71.2867 933.248 72.5433 933.248 74.45V112.15C933.248 114.057 933.551 115.357 934.158 116.05C934.851 116.657 936.151 116.96 938.058 116.96ZM1022.43 131C1017.75 131 1013.76 129.353 1010.47 126.06C1007.17 122.767 1005.53 118.78 1005.53 114.1V72.5C1005.53 67.82 1007.17 63.8333 1010.47 60.54C1013.76 57.2467 1017.75 55.6 1022.43 55.6H1065.33C1070.01 55.6 1073.99 57.2467 1077.29 60.54C1080.58 63.8333 1082.23 67.82 1082.23 72.5V114.1C1082.23 118.78 1080.58 122.767 1077.29 126.06C1073.99 129.353 1070.01 131 1065.33 131H1022.43ZM1024.38 116.96H1063.38C1065.28 116.96 1066.54 116.657 1067.15 116.05C1067.75 115.357 1068.06 114.057 1068.06 112.15V74.45C1068.06 72.5433 1067.75 71.2867 1067.15 70.68C1066.54 69.9867 1065.28 69.64 1063.38 69.64H1024.38C1022.47 69.64 1021.17 69.9867 1020.48 70.68C1019.87 71.2867 1019.57 72.5433 1019.57 74.45V112.15C1019.57 114.057 1019.87 115.357 1020.48 116.05C1021.17 116.657 1022.47 116.96 1024.38 116.96ZM1090.7 131V128.53L1120.21 92.65L1090.7 58.07V55.6H1107.08L1129.31 81.73L1151.67 55.6H1167.92V58.07L1138.54 92.65L1168.05 128.53V131H1151.67L1129.31 103.57L1107.08 131H1090.7Z" fill="black"/>
<defs>
<filter id="filter0_d_6_14" x="46" y="142" width="144" height="44" filterUnits="userSpaceOnUse" color-interpolation-filters="sRGB">
<feFlood flood-opacity="0" result="BackgroundImageFix"/>
<feColorMatrix in="SourceAlpha" type="matrix" values="0 0 0 0 0 0 0 0 0 0 0 0 0 0 0 0 0 0 127 0" result="hardAlpha"/>
<feOffset dy="4"/>
<feGaussianBlur stdDeviation="2"/>
<feComposite in2="hardAlpha" operator="out"/>
<feColorMatrix type="matrix" values="0 0 0 0 0 0 0 0 0 0 0 0 0 0 0 0 0 0 0.25 0"/>
<feBlend mode="normal" in2="BackgroundImageFix" result="effect1_dropShadow_6_14"/>
<feBlend mode="normal" in="SourceGraphic" in2="effect1_dropShadow_6_14" result="shape"/>
</filter>
<filter id="filter1_d_6_14" x="0" y="2" width="228" height="155" filterUnits="userSpaceOnUse" color-interpolation-filters="sRGB">
<feFlood flood-opacity="0" result="BackgroundImageFix"/>
<feColorMatrix in="SourceAlpha" type="matrix" values="0 0 0 0 0 0 0 0 0 0 0 0 0 0 0 0 0 0 127 0" result="hardAlpha"/>
<feOffset dy="4"/>
<feGaussianBlur stdDeviation="2"/>
<feComposite in2="hardAlpha" operator="out"/>
<feColorMatrix type="matrix" values="0 0 0 0 0 0 0 0 0 0 0 0 0 0 0 0 0 0 0.25 0"/>
<feBlend mode="normal" in2="BackgroundImageFix" result="effect1_dropShadow_6_14"/>
<feBlend mode="normal" in="SourceGraphic" in2="effect1_dropShadow_6_14" result="shape"/>
</filter>
<filter id="filter2_d_6_14" x="37" y="6" width="171" height="131" filterUnits="userSpaceOnUse" color-interpolation-filters="sRGB">
<feFlood flood-opacity="0" result="BackgroundImageFix"/>
<feColorMatrix in="SourceAlpha" type="matrix" values="0 0 0 0 0 0 0 0 0 0 0 0 0 0 0 0 0 0 127 0" result="hardAlpha"/>
<feOffset dy="4"/>
<feGaussianBlur stdDeviation="2"/>
<feComposite in2="hardAlpha" operator="out"/>
<feColorMatrix type="matrix" values="0 0 0 0 0 0 0 0 0 0 0 0 0 0 0 0 0 0 0.25 0"/>
<feBlend mode="normal" in2="BackgroundImageFix" result="effect1_dropShadow_6_14"/>
<feBlend mode="normal" in="SourceGraphic" in2="effect1_dropShadow_6_14" result="shape"/>
</filter>
</defs>
</svg>
