<svg width="543" height="543" viewBox="0 0 543 543" fill="none" xmlns="http://www.w3.org/2000/svg">
<path d="M341.607 394.937C335.749 389.079 335.749 379.581 341.607 373.723L373.724 341.606C379.582 335.748 389.08 335.748 394.937 341.606L538.44 485.108C544.298 490.966 544.298 500.464 538.44 506.322L506.322 538.439C500.464 544.297 490.967 544.297 485.109 538.439L341.607 394.937Z" fill="white"/>
<path d="M306 344.162L344.162 306L410.169 372.007L372.007 410.169L306 344.162Z" fill="white"/>
<path d="M410 205C410 318.218 318.218 410 205 410C91.7816 410 0 318.218 0 205C0 91.7816 91.7816 0 205 0C318.218 0 410 91.7816 410 205ZM45.8759 205C45.8759 292.882 117.118 364.124 205 364.124C292.882 364.124 364.124 292.882 364.124 205C364.124 117.118 292.882 45.8759 205 45.8759C117.118 45.8759 45.8759 117.118 45.8759 205Z" fill="white"/>
</svg>
