<svg width="247" height="247" viewBox="0 0 247 247" fill="none" xmlns="http://www.w3.org/2000/svg">
<g filter="url(#filter0_d_0_1)">
<path d="M25.5683 238.265C16.5454 236.305 8.50267 229.072 5.3332 220.066L4.18336 216.799L4.05619 157.893C3.9148 92.3991 3.78706 95.3537 7.0486 88.68C9.27419 84.1261 14.5041 78.8343 18.9097 76.6785C25.1265 73.6364 23.2787 73.7445 69.0675 73.7445H110.639L94.9091 57.9922C84.3721 47.4404 78.9405 41.667 78.4568 40.5046C77.0402 37.1003 77.9134 32.4329 80.3702 30.2777C83.1523 27.8372 87.7958 27.121 90.8105 28.6673C91.7095 29.1284 99.4318 36.4617 107.971 44.9635L123.497 60.4214L153.27 30.756C184.597 -0.4594 184.077 0.000376484 188.059 0.000376484C189.631 0.000376484 192.594 1.25642 193.945 2.49547C196.653 4.97917 197.567 9.42507 196.098 12.9673C195.599 14.1731 186.374 23.7096 165.866 44.2235L136.352 73.7445H177.928C223.722 73.7445 221.873 73.6364 228.09 76.6785C232.496 78.8343 237.726 84.1261 239.951 88.68C243.213 95.3537 243.085 92.3991 242.944 157.893L242.817 216.799L241.667 220.066C238.458 229.183 230.432 236.333 221.216 238.285C216.655 239.251 30.0207 239.232 25.5684 238.265L25.5683 238.265ZM124.2 220.304C146.581 219.659 155.676 218.097 163.4 213.573C166.517 211.747 170.888 206.739 172.702 202.917C176.792 194.295 178.064 185.29 178.453 162.191C179.343 109.268 173.541 97.3376 144.982 93.3667C137.928 92.3859 124.582 91.9607 100.851 91.9607C63.9479 91.9607 52.6819 92.8708 42.7965 96.6504C30.2101 101.463 25.1192 110.896 23.0424 133.253C22.3147 141.087 22.3252 172.053 23.0583 179.46C25.8533 207.707 32.8032 215.848 56.9537 219.162C66.5196 220.474 99.1168 221.028 124.201 220.304H124.2ZM217.025 182.976C220.04 181.455 222.385 179.044 223.851 175.959C224.836 173.886 225.068 172.719 225.056 169.892C225.032 164.146 222.318 159.807 217.162 157.27C207.551 152.541 196.573 159.419 196.646 170.125C196.69 176.633 200.63 181.847 207.092 183.947C209.377 184.69 214.651 184.175 217.025 182.976V182.976ZM215.639 146.815C222.254 144.456 226.367 137.132 224.867 130.38C223.285 123.258 217.236 118.676 209.971 119.097C197.522 119.818 192.061 134.841 201.05 143.641C202.166 144.733 204.139 146.035 205.435 146.534C208.226 147.607 213.044 147.739 215.639 146.815V146.815Z" fill="#BBBBBB"/>
</g>
<g filter="url(#filter1_d_0_1)">
<path d="M84.5 127.26H62.27V205H53.43V127.26H31.2V118.55H84.5V127.26ZM125.09 204.87L94.9305 118.42H104.42L130.81 193.95L157.2 118.42H166.56L136.4 204.87H125.09Z" fill="#BBBBBB"/>
</g>
<defs>
<filter id="filter0_d_0_1" x="0" y="0" width="247" height="247" filterUnits="userSpaceOnUse" color-interpolation-filters="sRGB">
<feFlood flood-opacity="0" result="BackgroundImageFix"/>
<feColorMatrix in="SourceAlpha" type="matrix" values="0 0 0 0 0 0 0 0 0 0 0 0 0 0 0 0 0 0 127 0" result="hardAlpha"/>
<feOffset dy="4"/>
<feGaussianBlur stdDeviation="2"/>
<feComposite in2="hardAlpha" operator="out"/>
<feColorMatrix type="matrix" values="0 0 0 0 0 0 0 0 0 0 0 0 0 0 0 0 0 0 0.25 0"/>
<feBlend mode="normal" in2="BackgroundImageFix" result="effect1_dropShadow_0_1"/>
<feBlend mode="normal" in="SourceGraphic" in2="effect1_dropShadow_0_1" result="shape"/>
</filter>
<filter id="filter1_d_0_1" x="27.2" y="118.42" width="143.36" height="94.58" filterUnits="userSpaceOnUse" color-interpolation-filters="sRGB">
<feFlood flood-opacity="0" result="BackgroundImageFix"/>
<feColorMatrix in="SourceAlpha" type="matrix" values="0 0 0 0 0 0 0 0 0 0 0 0 0 0 0 0 0 0 127 0" result="hardAlpha"/>
<feOffset dy="4"/>
<feGaussianBlur stdDeviation="2"/>
<feComposite in2="hardAlpha" operator="out"/>
<feColorMatrix type="matrix" values="0 0 0 0 0 0 0 0 0 0 0 0 0 0 0 0 0 0 0.25 0"/>
<feBlend mode="normal" in2="BackgroundImageFix" result="effect1_dropShadow_0_1"/>
<feBlend mode="normal" in="SourceGraphic" in2="effect1_dropShadow_0_1" result="shape"/>
</filter>
</defs>
</svg>
