<svg width="500" height="500" viewBox="0 0 500 500" fill="none" xmlns="http://www.w3.org/2000/svg">
<path d="M188.785 346.411L188.788 346.409L273.688 284.709L273.696 284.703C277.05 282.215 279 278.317 279 274.2V110C279 102.848 273.152 97 266 97H234C226.848 97 221 102.848 221 110V251.191L154.615 299.489C154.614 299.49 154.613 299.49 154.613 299.491C148.753 303.724 147.576 311.852 151.789 317.685L151.791 317.687L170.591 343.587L170.595 343.593C174.82 349.335 182.941 350.632 188.785 346.411ZM499 250C499 112.448 387.552 1 250 1C112.448 1 1 112.448 1 250C1 387.552 112.448 499 250 499C387.552 499 499 387.552 499 250ZM449 250C449 359.948 359.948 449 250 449C140.052 449 51 359.948 51 250C51 140.052 140.052 51 250 51C359.948 51 449 140.052 449 250Z" fill="#D8CE3D" stroke="black" stroke-width="2"/>
</svg>
