<svg width="496" height="497" viewBox="0 0 496 497" fill="none" xmlns="http://www.w3.org/2000/svg">
<path d="M270.504 281.597L270.482 281.614L270.46 281.632L162.887 371.209C160.391 373.001 156.993 373.951 153.597 373.962C150.204 373.974 146.941 373.051 144.667 371.253L132.274 358.86L132.228 358.793C132.163 358.696 132.066 358.553 131.939 358.364C131.685 357.986 131.312 357.427 130.834 356.704C129.879 355.257 128.509 353.156 126.848 350.538C123.527 345.301 119.047 338 114.417 329.744C105.131 313.189 95.3211 292.941 92.9043 277.793C88.0399 247.301 92.378 216.063 105.37 188.03C118.363 159.998 139.426 136.428 165.898 120.302C192.37 104.176 223.061 96.2196 254.09 97.4383L254.107 97.439L254.123 97.4391L263.994 97.5H264C270.048 97.5 275 102.452 275 108.5V272.7C275 276.183 273.35 279.485 270.504 281.597ZM248 1.5C384.448 1.5 495 112.052 495 248.5C495 384.948 384.448 495.5 248 495.5C111.552 495.5 1 384.948 1 248.5C1 112.052 111.552 1.5 248 1.5ZM248 449.5C359.052 449.5 449 359.552 449 248.5C449 137.448 359.052 47.5 248 47.5C136.948 47.5 47 137.448 47 248.5C47 359.552 136.948 449.5 248 449.5Z" fill="#47B0EC" stroke="black" stroke-width="2"/>
</svg>
