<svg width="496" height="496" viewBox="0 0 496 496" fill="none" xmlns="http://www.w3.org/2000/svg">
<path d="M206.636 296.401L207.34 297.111L208.05 296.407L349.402 156.191L348.698 155.481L349.402 156.191C353.715 151.912 360.68 151.94 364.958 156.253L387.494 178.971C391.772 183.284 391.745 190.249 387.433 194.528L214.844 365.732L215.548 366.442L214.844 365.732C210.531 370.011 203.566 369.983 199.288 365.67L108.507 274.154C104.228 269.84 104.256 262.875 108.569 258.597L131.288 236.061C135.601 231.783 142.566 231.811 146.844 236.124L206.636 296.401ZM1 248C1 111.585 111.585 1 248 1C384.415 1 495 111.585 495 248C495 384.415 384.415 495 248 495C111.585 495 1 384.415 1 248ZM449 248C449 136.899 359.084 47 248 47C136.899 47 47 136.916 47 248C47 359.101 136.916 449 248 449C359.101 449 449 359.084 449 248Z" fill="#3FBD46" stroke="black" stroke-width="2"/>
</svg>
